<svg width="1633" height="1232" viewBox="0 0 1633 1232" fill="none" xmlns="http://www.w3.org/2000/svg">
<g style="mix-blend-mode:luminosity">
<path d="M304.8 1097.53C608.358 1276.82 1100.71 1276.82 1404.27 1097.53C1707.83 918.249 1707.83 627.612 1404.27 448.364C1100.71 269.117 608.358 269.08 304.8 448.364C1.24242 627.649 1.13137 918.286 304.8 1097.53Z" fill="#FAFAFA"/>
<path d="M1491.86 435.223C1493.52 414.418 1509.55 378.954 1533.28 353.78C1557.01 328.607 1594.99 316.317 1618.43 326.497C1640.27 336.011 1635.46 365.256 1606.65 382.544C1577.85 399.832 1534.99 421.081 1520.29 453.843L1491.86 493.158V435.223Z" fill="#BA68C8"/>
<path opacity="0.2" d="M1491.86 435.223C1493.52 414.418 1509.55 378.954 1533.28 353.78C1557.01 328.607 1594.99 316.317 1618.43 326.497C1640.27 336.011 1635.46 365.256 1606.65 382.544C1577.85 399.832 1534.99 421.081 1520.29 453.843L1491.86 493.158V435.223Z" fill="black"/>
<path d="M1609.36 336.122C1582.15 341.305 1502.41 392.651 1491.97 470.169" stroke="white" stroke-miterlimit="10" stroke-linecap="round"/>
<path d="M1495.08 528.622C1499.26 517.516 1517.48 496.897 1543.69 486.79C1569.89 476.684 1589.66 467.652 1599.21 451.363C1608.77 435.075 1592.14 419.082 1565.67 420.23C1539.21 421.378 1495.12 449.105 1492.01 493.158L1495.08 528.622Z" fill="#BA68C8"/>
<path d="M1579.15 433.409C1556.27 435.667 1500.67 469.391 1493.19 507.151" stroke="white" stroke-miterlimit="10" stroke-linecap="round"/>
<path d="M127.7 634.349C126.569 604.939 120.031 575.988 108.413 548.946C88.9039 502.709 49.4414 478.239 28.4145 474.907C7.38762 471.576 -14.3427 497.119 12.4222 527.475C39.1871 557.83 90.4958 598.478 105.229 659.966L129.329 701.946L127.7 634.349Z" fill="#BA68C8"/>
<path opacity="0.2" d="M127.7 634.349C126.569 604.939 120.031 575.988 108.413 548.946C88.9039 502.709 49.4414 478.239 28.4145 474.907C7.38762 471.576 -14.3427 497.119 12.4222 527.475C39.1871 557.83 90.4958 598.478 105.229 659.966L129.329 701.946L127.7 634.349Z" fill="black"/>
<path d="M28.4145 489.012C71.5789 514.703 121.592 582.115 128.589 671.702" stroke="white" stroke-linecap="round" stroke-linejoin="round"/>
<path d="M124.405 745C118.445 721.122 102.86 697.837 71.727 674.441C40.5939 651.045 -1.01575 630.943 2.39002 607.066C5.79579 583.189 37.3362 584.854 60.4362 595.405C83.5362 605.955 123.591 649.379 129.329 701.872L124.405 745Z" fill="#BA68C8"/>
<path d="M24.2314 599.588C54.2169 606.992 118.556 665.852 127.885 715.977" stroke="white" stroke-linecap="round" stroke-linejoin="round"/>
<path d="M132.92 759.733C130.432 758.112 128.364 755.925 126.884 753.352C125.405 750.778 124.555 747.89 124.405 744.925V210.553C124.561 207.589 125.413 204.704 126.892 202.131C128.372 199.558 130.437 197.371 132.92 195.745L323.828 85.539C326.296 83.9982 329.138 83.1584 332.047 83.1096C334.956 83.0608 337.824 83.8049 340.343 85.2621C342.862 86.7192 344.936 88.8345 346.344 91.3811C347.752 93.9277 348.44 96.8095 348.335 99.7174V135.404C348.335 140.846 352.037 143.067 356.886 140.328L595.771 2.43091C598.237 0.892086 601.074 0.0526431 603.981 0.00239617C606.887 -0.0478508 609.752 0.692988 612.269 2.14565C614.787 3.59831 616.862 5.70812 618.272 8.24931C619.683 10.7905 620.376 13.6674 620.278 16.5722V837.955L444.214 939.535L132.92 759.733Z" fill="#263238"/>
<path d="M612.282 2.17178C609.702 0.914061 606.861 0.285189 603.991 0.336664C601.121 0.388139 598.304 1.11851 595.771 2.46794L356.886 140.365C352.148 143.104 348.335 140.883 348.335 135.441V99.7545C348.44 96.8465 347.752 93.9647 346.344 91.4181C344.936 88.8716 342.862 86.7563 340.343 85.2991C337.824 83.8419 334.956 83.0978 332.047 83.1466C329.138 83.1954 326.296 84.0352 323.828 85.5761L132.92 195.782C130.411 197.371 128.337 199.559 126.886 202.15L236.389 265.378L620.278 43.6703V16.6093C620.173 13.7438 619.394 10.9434 618.005 8.43504C616.616 5.92668 614.655 3.78095 612.282 2.17178Z" fill="#455A64"/>
<path d="M611.763 11.6858L356.886 158.837C352.148 161.577 348.335 159.355 348.335 153.914V99.7545C348.335 94.3127 344.633 92.0915 339.82 94.8309L148.912 205.037C146.427 206.66 144.36 208.848 142.881 211.421C141.401 213.994 140.55 216.88 140.398 219.845V735.93C140.548 738.899 141.402 741.79 142.889 744.364C144.376 746.939 146.453 749.123 148.949 750.737L460.318 930.503L620.278 838.177V16.6093C620.278 11.1675 616.465 8.98338 611.763 11.6858Z" fill="#37474F"/>
<path d="M142.915 744.148C144.344 746.755 146.423 748.948 148.949 750.515L460.318 930.281L620.278 837.955V468.54L142.915 744.148Z" fill="#263238"/>
<path d="M181.563 861.795L179.231 860.463C177.242 859.17 175.586 857.427 174.396 855.376C173.206 853.324 172.516 851.021 172.382 848.653V347.228C172.508 344.858 173.194 342.552 174.385 340.499C175.575 338.446 177.236 336.705 179.231 335.419L693.428 38.5247C695.544 37.4486 697.884 36.8877 700.258 36.8877C702.632 36.8877 704.972 37.4486 707.088 38.5247L709.42 39.8944C711.415 41.1803 713.076 42.9213 714.266 44.9743C715.457 47.0273 716.143 49.3336 716.269 51.7035V553.018C716.134 555.386 715.445 557.689 714.255 559.74C713.065 561.792 711.409 563.535 709.42 564.827L195.223 861.795C193.107 862.871 190.767 863.432 188.393 863.432C186.019 863.432 183.679 862.871 181.563 861.795Z" fill="#F5F5F5"/>
<path d="M204.367 357.704L174.381 340.379C173.159 342.421 172.471 344.739 172.382 347.117V848.542C172.516 850.91 173.206 853.213 174.396 855.265C175.586 857.316 177.242 859.059 179.231 860.351L181.563 861.684C183.679 862.76 186.019 863.321 188.393 863.321C190.767 863.321 193.107 862.76 195.223 861.684L204.367 856.39V357.704Z" fill="#E0E0E0"/>
<path d="M188.412 857.76V356.335C188.539 353.969 189.222 351.667 190.405 349.616C191.589 347.564 193.239 345.82 195.223 344.526L709.42 47.6314C713.122 45.4843 716.269 47.2242 716.269 51.5924V553.018C716.134 555.386 715.444 557.689 714.255 559.74C713.065 561.792 711.409 563.534 709.42 564.827L195.223 861.795C191.447 863.868 188.412 862.128 188.412 857.76Z" fill="#EBEBEB"/>
<path d="M228.911 362.036L675.733 104.086C680.434 101.346 684.247 103.568 684.247 109.009V495.638C684.097 498.603 683.248 501.491 681.768 504.064C680.288 506.638 678.22 508.825 675.733 510.446L228.911 768.359C224.209 771.098 220.396 768.877 220.396 763.435V376.843C220.552 373.88 221.404 370.994 222.883 368.422C224.362 365.849 226.427 363.661 228.911 362.036Z" fill="white"/>
<path d="M302.764 342.748C330.602 326.682 353.147 339.713 353.147 371.846C353.147 403.978 330.602 443.034 302.764 459.1C274.926 475.166 252.381 462.172 252.381 430.04C252.381 397.907 274.926 358.815 302.764 342.748Z" fill="#BA68C8"/>
<path d="M349.445 459.285C351.154 456.1 353.593 453.364 356.561 451.302C359.529 449.239 362.944 447.908 366.525 447.417C370.106 446.926 373.752 447.289 377.166 448.477C380.58 449.664 383.665 451.643 386.168 454.251L444.214 514.703L554.532 244.056C556.151 240.087 558.851 236.652 562.324 234.141C565.798 231.63 569.906 230.144 574.182 229.851C578.458 229.558 582.73 230.47 586.514 232.484C590.298 234.497 593.441 237.532 595.586 241.242L684.173 394.65V495.638C684.023 498.603 683.174 501.491 681.694 504.064C680.214 506.638 678.146 508.825 675.659 510.446L228.911 768.359C224.209 771.098 220.396 768.877 220.396 763.435V699.392L349.445 459.285Z" fill="#BA68C8"/>
<path d="M277.628 917.324L275.259 915.954C273.275 914.66 271.624 912.916 270.441 910.864C269.257 908.812 268.574 906.51 268.447 904.145V402.535C268.574 400.169 269.257 397.867 270.441 395.816C271.624 393.764 273.275 392.02 275.259 390.726L789.493 93.8684C791.598 92.7779 793.934 92.2087 796.304 92.2087C798.675 92.2087 801.011 92.7779 803.116 93.8684L805.485 95.2011C807.469 96.4955 809.119 98.2394 810.303 100.291C811.486 102.343 812.169 104.645 812.297 107.01V608.436C812.19 610.806 811.516 613.116 810.331 615.171C809.145 617.226 807.483 618.966 805.485 620.245L291.177 917.324C289.082 918.402 286.759 918.965 284.402 918.965C282.046 918.965 279.723 918.402 277.628 917.324Z" fill="#F5F5F5"/>
<path d="M300.358 413.159L270.372 395.834C269.154 397.865 268.466 400.169 268.373 402.535V903.96C268.5 906.325 269.183 908.627 270.367 910.679C271.55 912.731 273.201 914.475 275.185 915.769L277.554 917.139C279.659 918.229 281.995 918.799 284.365 918.799C286.736 918.799 289.072 918.229 291.177 917.139L300.358 911.845V413.159Z" fill="#E0E0E0"/>
<path d="M284.365 913.215V411.79C284.496 409.425 285.18 407.124 286.363 405.073C287.546 403.021 289.195 401.277 291.177 399.98L805.411 103.086C809.113 100.902 812.222 102.679 812.222 107.01V608.436C812.116 610.806 811.442 613.116 810.257 615.171C809.071 617.226 807.409 618.966 805.411 620.245L291.177 917.324C287.438 919.323 284.365 917.546 284.365 913.215Z" fill="#EBEBEB"/>
<path d="M324.901 417.565L771.723 159.578C776.425 156.875 780.238 159.096 780.238 164.501V551.056C780.085 554.02 779.235 556.907 777.755 559.48C776.275 562.053 774.209 564.24 771.723 565.864L324.901 823.851C320.163 826.553 316.35 824.369 316.35 818.927V432.372C316.504 429.404 317.359 426.514 318.845 423.94C320.332 421.366 322.407 419.181 324.901 417.565Z" fill="white"/>
<path d="M398.755 398.203C426.556 382.137 449.138 395.168 449.138 427.3C449.138 459.433 426.556 498.488 398.755 514.555C370.953 530.621 348.372 517.59 348.372 485.458C348.372 453.325 370.916 414.27 398.755 398.203Z" fill="#BA68C8"/>
<path d="M445.436 514.74C447.141 511.555 449.575 508.819 452.54 506.756C455.506 504.694 458.917 503.362 462.496 502.871C466.074 502.38 469.718 502.743 473.13 503.931C476.541 505.119 479.623 507.098 482.122 509.705L540.464 570.158L650.745 299.51C652.359 295.532 655.059 292.088 658.537 289.57C662.014 287.052 666.128 285.561 670.411 285.268C674.695 284.975 678.974 285.891 682.762 287.911C686.55 289.932 689.694 292.976 691.836 296.697L780.386 450.104V551.056C780.233 554.02 779.383 556.907 777.903 559.48C776.423 562.053 774.357 564.24 771.872 565.863L325.05 823.85C320.311 826.553 316.498 824.369 316.498 818.927V754.884L445.436 514.74Z" fill="#BA68C8"/>
<path d="M373.508 972.52L371.175 971.187C369.192 969.892 367.541 968.149 366.358 966.097C365.174 964.045 364.491 961.743 364.364 959.378V457.952C364.489 455.582 365.176 453.276 366.366 451.223C367.557 449.17 369.218 447.429 371.212 446.143L885.409 149.249C887.525 148.173 889.866 147.612 892.239 147.612C894.613 147.612 896.954 148.173 899.07 149.249L901.402 150.619C903.396 151.905 905.057 153.646 906.248 155.699C907.439 157.752 908.125 160.058 908.25 162.428V663.853C908.116 666.221 907.426 668.524 906.236 670.576C905.047 672.627 903.39 674.37 901.402 675.662L387.205 972.52C385.084 973.602 382.737 974.166 380.356 974.166C377.975 974.166 375.628 973.602 373.508 972.52Z" fill="#F5F5F5"/>
<path d="M396.349 468.54L366.474 451.215C365.251 453.257 364.564 455.574 364.475 457.952V959.378C364.602 961.743 365.285 964.045 366.469 966.097C367.652 968.149 369.303 969.892 371.287 971.187L373.619 972.52C375.735 973.596 378.075 974.157 380.449 974.157C382.823 974.157 385.163 973.596 387.279 972.52L396.46 967.226L396.349 468.54Z" fill="#E0E0E0"/>
<path d="M380.356 968.596V467.17C380.483 464.805 381.167 462.503 382.35 460.451C383.534 458.399 385.184 456.656 387.168 455.361L901.365 158.43C905.067 156.283 908.213 158.023 908.213 162.391V663.853C908.079 666.221 907.389 668.524 906.199 670.576C905.01 672.627 903.353 674.37 901.365 675.662L387.168 972.52C383.392 974.704 380.356 972.853 380.356 968.596Z" fill="#EBEBEB"/>
<path d="M420.855 472.834L867.677 214.884C872.379 212.145 876.192 214.366 876.192 219.808V606.362C876.039 609.327 875.188 612.213 873.709 614.786C872.229 617.36 870.163 619.547 867.677 621.17L420.855 879.194C416.154 881.934 412.341 879.712 412.341 874.27V487.605C412.502 484.647 413.357 481.77 414.836 479.204C416.315 476.638 418.377 474.456 420.855 472.834Z" fill="white"/>
<path d="M494.709 453.584C522.547 437.518 545.092 450.549 545.092 482.681C545.092 514.814 522.547 553.869 494.709 569.936C466.87 586.002 444.214 573.045 444.214 540.876C444.214 508.706 466.87 469.651 494.709 453.584Z" fill="#BA68C8"/>
<path d="M541.39 570.121C543.099 566.936 545.537 564.2 548.506 562.137C551.474 560.074 554.888 558.743 558.469 558.252C562.051 557.761 565.697 558.124 569.111 559.312C572.525 560.5 575.61 562.478 578.113 565.086L636.27 625.538L746.587 354.891C748.207 350.923 750.906 347.488 754.38 344.977C757.853 342.466 761.961 340.979 766.237 340.686C770.513 340.393 774.786 341.305 778.57 343.319C782.353 345.333 785.496 348.367 787.642 352.077L876.229 505.485V606.362C876.063 609.328 875.203 612.213 873.718 614.785C872.232 617.358 870.163 619.545 867.677 621.17L420.855 879.194C416.154 881.934 412.341 879.712 412.341 874.271V810.227L541.39 570.121Z" fill="#BA68C8"/>
<path d="M460.318 930.281L508.295 902.59V958.008L460.318 930.281Z" fill="#263238"/>
<path d="M508.295 543.023V948.161C508.295 953.603 504.593 955.787 499.78 953.084L460.318 930.281L444.214 939.535L515.661 980.775C518.303 982.126 521.227 982.831 524.194 982.831C527.161 982.831 530.086 982.126 532.727 980.775L1027.64 695.209C1030.13 693.587 1032.2 691.401 1033.69 688.828C1035.17 686.255 1036.03 683.368 1036.19 680.401V256.753C1036.29 253.844 1035.59 250.963 1034.18 248.419C1032.77 245.874 1030.69 243.761 1028.17 242.305C1025.65 240.849 1022.78 240.105 1019.87 240.153C1016.96 240.2 1014.12 241.037 1011.64 242.575L516.846 528.252C514.357 529.865 512.284 532.044 510.798 534.611C509.312 537.178 508.454 540.061 508.295 543.023Z" fill="#263238"/>
<path d="M540.464 551.648L1036.52 265.378V256.753C1036.62 253.844 1035.92 250.963 1034.51 248.419C1033.1 245.874 1031.02 243.761 1028.5 242.305C1025.98 240.849 1023.11 240.105 1020.2 240.153C1017.29 240.2 1014.45 241.037 1011.98 242.575L516.846 528.252C514.32 529.819 512.241 532.012 510.812 534.619L540.464 551.648Z" fill="#455A64"/>
<path d="M1027.64 251.829L532.838 537.507C530.348 539.128 528.276 541.314 526.79 543.887C525.304 546.46 524.447 549.347 524.287 552.314V975.851C524.287 981.293 527.989 983.514 532.838 980.775L1027.64 695.209C1030.13 693.588 1032.2 691.402 1033.69 688.829C1035.17 686.255 1036.03 683.368 1036.19 680.401V256.753C1036.19 251.311 1032.34 249.09 1027.64 251.829Z" fill="#37474F"/>
<path d="M656.038 799.862C655.091 799.875 654.157 799.632 653.336 799.159C652.35 798.509 651.558 797.606 651.043 796.544C650.529 795.482 650.31 794.3 650.411 793.125V587.224C650.542 584.535 651.312 581.917 652.658 579.587C654.004 577.256 655.886 575.28 658.148 573.823L900.476 433.927C901.414 433.187 902.551 432.746 903.742 432.661C904.933 432.575 906.122 432.85 907.156 433.448C908.189 434.046 909.019 434.941 909.537 436.017C910.056 437.092 910.239 438.299 910.064 439.48V645.381C909.933 648.069 909.163 650.687 907.818 653.018C906.472 655.348 904.59 657.324 902.327 658.782L659.999 798.862C658.788 799.533 657.423 799.877 656.038 799.862ZM904.437 436.444C903.682 436.478 902.952 436.722 902.327 437.148L659.999 577.006C658.3 578.144 656.886 579.657 655.865 581.429C654.844 583.2 654.245 585.183 654.113 587.224V793.125C654.046 793.646 654.109 794.175 654.297 794.666C654.484 795.157 654.79 795.594 655.187 795.938C655.681 796.118 656.212 796.168 656.73 796.083C657.249 795.999 657.737 795.783 658.148 795.457L900.476 655.561C902.177 654.434 903.593 652.928 904.614 651.162C905.635 649.395 906.234 647.417 906.362 645.381V439.48C906.433 438.959 906.371 438.428 906.184 437.936C905.996 437.445 905.689 437.008 905.289 436.666C905.031 436.516 904.736 436.439 904.437 436.444Z" fill="#FAFAFA"/>
<path d="M695.094 622.54C692.98 622.562 690.899 622.026 689.059 620.985C686.773 619.416 684.949 617.263 683.777 614.75C682.605 612.237 682.128 609.456 682.396 606.696C682.792 599.585 684.854 592.666 688.417 586.499C691.979 580.332 696.942 575.09 702.905 571.194C705.069 569.434 707.719 568.375 710.5 568.157C713.282 567.94 716.064 568.575 718.475 569.978C720.887 571.381 722.814 573.485 724.001 576.01C725.187 578.535 725.576 581.362 725.116 584.114C724.729 591.227 722.67 598.149 719.107 604.317C715.543 610.485 710.576 615.726 704.608 619.615C701.737 621.384 698.462 622.391 695.094 622.54ZM712.567 571.972C709.795 572.095 707.103 572.937 704.756 574.415C699.354 577.966 694.865 582.739 691.649 588.347C688.434 593.954 686.583 600.24 686.246 606.696C685.756 608.813 685.959 611.032 686.825 613.026C687.692 615.019 689.175 616.682 691.058 617.768C692.941 618.855 695.123 619.308 697.282 619.06C699.442 618.813 701.464 617.879 703.053 616.395C708.452 612.841 712.94 608.068 716.155 602.461C719.371 596.853 721.223 590.569 721.562 584.114C721.817 582.002 721.505 579.861 720.66 577.909C719.814 575.958 718.465 574.266 716.75 573.008C715.478 572.283 714.03 571.924 712.567 571.972Z" fill="#FAFAFA"/>
<path d="M652.262 784.388C651.995 784.33 651.743 784.216 651.522 784.055C651.306 783.945 651.114 783.794 650.957 783.609C650.8 783.424 650.682 783.21 650.61 782.979C650.537 782.748 650.512 782.504 650.535 782.263C650.558 782.022 650.629 781.788 650.745 781.574L722.488 640.716C723.567 638.585 725.132 636.738 727.056 635.322C728.98 633.906 731.209 632.962 733.565 632.566C735.92 632.17 738.336 632.333 740.617 633.041C742.898 633.749 744.982 634.984 746.698 636.644L817.627 704.908C817.8 705.077 817.937 705.278 818.03 705.501C818.123 705.723 818.172 705.962 818.172 706.203C818.172 706.445 818.123 706.684 818.03 706.906C817.937 707.129 817.8 707.33 817.627 707.499C817.455 707.673 817.25 707.81 817.025 707.904C816.799 707.998 816.557 708.047 816.313 708.047C816.069 708.047 815.827 707.998 815.601 707.904C815.376 707.81 815.171 707.673 814.999 707.499L744.07 639.421C742.767 638.172 741.191 637.245 739.466 636.714C737.741 636.182 735.917 636.06 734.137 636.359C732.357 636.657 730.672 637.367 729.215 638.432C727.758 639.497 726.57 640.888 725.746 642.493L654.002 783.389C653.836 783.702 653.584 783.962 653.276 784.139C652.968 784.315 652.617 784.402 652.262 784.388Z" fill="#FAFAFA"/>
<path d="M780.238 673.552C779.994 673.604 779.742 673.604 779.498 673.552C779.054 673.357 778.705 672.996 778.525 672.546C778.345 672.096 778.349 671.593 778.535 671.146L834.064 542.764C835.056 540.431 836.63 538.391 838.636 536.841C840.642 535.291 843.013 534.282 845.52 533.911C848.028 533.539 850.589 533.818 852.959 534.72C855.328 535.621 857.426 537.117 859.052 539.062L909.546 600.106C909.705 600.29 909.825 600.503 909.9 600.733C909.975 600.964 910.003 601.207 909.982 601.449C909.962 601.69 909.893 601.925 909.78 602.14C909.666 602.354 909.512 602.544 909.324 602.698C908.984 602.963 908.564 603.104 908.133 603.097C907.702 603.09 907.286 602.936 906.955 602.661L856.46 541.616C855.25 540.147 853.683 539.014 851.908 538.325C850.134 537.637 848.213 537.416 846.328 537.683C844.444 537.951 842.66 538.698 841.148 539.854C839.635 541.009 838.445 542.534 837.692 544.281L782.163 672.627C781.977 672.961 781.692 673.23 781.347 673.395C781.003 673.561 780.615 673.616 780.238 673.552Z" fill="#FAFAFA"/>
<mask id="mask0_171_514" style="mask-type:luminance" maskUnits="userSpaceOnUse" x="924" y="163" width="97" height="223">
<path d="M1011.64 242.575L984.695 258.382L999.503 262.084L994.542 344.785L924.206 385.432V219.179L1020.16 163.761V237.651L1011.64 242.575Z" fill="white"/>
</mask>
<g mask="url(#mask0_171_514)">
<path d="M961.965 345.747C950.526 345.747 942.863 338.899 942.863 328.718L943.863 264.527C943.863 247.017 943.863 220.437 963.409 208.998C967.448 206.433 972.102 205.003 976.884 204.856C981.666 204.71 986.4 205.854 990.587 208.167C994.775 210.481 998.263 213.879 1000.68 218.005C1003.11 222.131 1004.37 226.833 1004.35 231.617C1004.35 236.763 1004.17 243.056 1003.87 250.349C1003.85 251.081 1003.69 251.803 1003.38 252.47C1003.08 253.138 1002.65 253.738 1002.11 254.235C1001.57 254.732 1000.94 255.116 1000.25 255.364C999.56 255.612 998.828 255.719 998.096 255.679C997.366 255.646 996.651 255.469 995.99 255.159C995.329 254.849 994.735 254.411 994.243 253.871C993.752 253.332 993.371 252.7 993.124 252.013C992.877 251.326 992.767 250.597 992.802 249.867C993.061 242.871 993.246 236.541 993.246 231.617C993.271 228.78 992.518 225.991 991.071 223.551C989.623 221.111 987.536 219.114 985.034 217.775C982.533 216.437 979.713 215.808 976.88 215.958C974.047 216.107 971.308 217.029 968.962 218.623C956.042 226.027 954.969 244.537 954.969 264.453L953.969 328.718C953.969 333.531 958.3 334.567 961.965 334.567C968.006 334.424 973.754 331.937 977.995 327.634C982.237 323.33 984.639 317.547 984.695 311.504L984.288 286.146C984.288 284.674 984.873 283.261 985.914 282.22C986.956 281.178 988.368 280.593 989.841 280.593C991.313 280.593 992.726 281.178 993.767 282.22C994.808 283.261 995.394 284.674 995.394 286.146L995.801 311.541C995.83 320.558 992.287 329.22 985.946 335.631C979.604 342.041 970.982 345.679 961.965 345.747Z" fill="#BA68C8"/>
</g>
<path d="M1045.33 740.298L659.111 963.302C657.122 964.594 655.466 966.337 654.276 968.389C653.087 970.44 652.397 972.743 652.262 975.111V977.813C652.394 980.187 653.082 982.496 654.272 984.554C655.462 986.612 657.12 988.361 659.111 989.66L981.363 1175.72C983.479 1176.79 985.819 1177.36 988.193 1177.36C990.567 1177.36 992.907 1176.79 995.023 1175.72L1381.24 952.714C1383.23 951.422 1384.89 949.679 1386.08 947.628C1387.27 945.576 1387.96 943.273 1388.09 940.905V938.166C1387.96 935.798 1387.27 933.495 1386.08 931.443C1384.89 929.392 1383.23 927.649 1381.24 926.357L1058.99 740.298C1056.88 739.222 1054.54 738.661 1052.16 738.661C1049.79 738.661 1047.45 739.222 1045.33 740.298Z" fill="#455A64"/>
<path d="M652.262 975.111V977.813C652.394 980.187 653.082 982.496 654.272 984.554C655.462 986.612 657.12 988.361 659.111 989.66L981.363 1175.72C983.461 1176.82 985.804 1177.38 988.175 1177.35V1142.7L668.255 958.045L659.111 963.339C657.127 964.628 655.474 966.365 654.285 968.409C653.095 970.454 652.402 972.75 652.262 975.111Z" fill="#263238"/>
<path d="M659.111 963.302L1045.33 740.298C1047.45 739.222 1049.79 738.661 1052.16 738.661C1054.54 738.661 1056.88 739.222 1058.99 740.298L1381.24 926.357C1382.08 926.628 1382.8 927.155 1383.32 927.863C1383.83 928.571 1384.11 929.424 1384.11 930.299C1384.11 931.175 1383.83 932.027 1383.32 932.735C1382.8 933.444 1382.08 933.971 1381.24 934.242L995.023 1157.25C992.907 1158.32 990.567 1158.88 988.193 1158.88C985.819 1158.88 983.479 1158.32 981.363 1157.25L659.111 971.187C658.279 970.916 657.554 970.389 657.039 969.681C656.525 968.972 656.248 968.12 656.248 967.244C656.248 966.369 656.525 965.517 657.039 964.808C657.554 964.1 658.279 963.573 659.111 963.302Z" fill="#37474F"/>
<path d="M707.051 971.187L957.338 1115.56C959.443 1116.65 961.779 1117.22 964.149 1117.22C966.52 1117.22 968.856 1116.65 970.961 1115.56L1309.24 920.285C1310.07 920.015 1310.8 919.487 1311.31 918.779C1311.83 918.071 1312.11 917.218 1312.11 916.343C1312.11 915.468 1311.83 914.615 1311.31 913.907C1310.8 913.199 1310.07 912.671 1309.24 912.4L1058.96 768.025C1056.83 766.966 1054.5 766.415 1052.13 766.415C1049.75 766.415 1047.42 766.966 1045.3 768.025L707.051 963.302C706.219 963.573 705.493 964.1 704.979 964.808C704.465 965.516 704.188 966.369 704.188 967.244C704.188 968.12 704.465 968.972 704.979 969.68C705.493 970.389 706.219 970.916 707.051 971.187Z" fill="white"/>
<path d="M784.236 940.646C801.894 930.466 830.547 930.466 848.205 940.646C865.863 950.826 865.9 967.374 848.205 977.665C830.51 987.957 801.894 987.846 784.236 977.665C766.578 967.485 766.578 950.864 784.236 940.646Z" fill="#BA68C8"/>
<path d="M1309.28 912.512L1236.13 870.273L1014.01 849.579C1011.31 849.328 1008.59 849.775 1006.11 850.877C1003.63 851.979 1001.48 853.699 999.856 855.873C998.233 858.046 997.194 860.6 996.841 863.29C996.487 865.98 996.83 868.716 997.837 871.235L1036.19 967.226L914.025 960.266C911.643 960.124 909.26 960.523 907.054 961.434C904.848 962.344 902.877 963.742 901.288 965.523C899.7 967.304 898.535 969.422 897.881 971.717C897.228 974.012 897.103 976.425 897.515 978.776L916.321 1092.02L957.486 1115.78C959.591 1116.87 961.927 1117.44 964.297 1117.44C966.668 1117.44 969.004 1116.87 971.109 1115.78L1309.39 920.508C1310.26 920.255 1311.03 919.723 1311.57 918.993C1312.11 918.263 1312.4 917.376 1312.38 916.467C1312.37 915.559 1312.06 914.68 1311.5 913.965C1310.94 913.25 1310.16 912.74 1309.28 912.512Z" fill="#BA68C8"/>
<path d="M1308.09 644.011V496.23L1500.04 385.432V533.176L1308.09 644.011Z" fill="#EBEBEB"/>
<path d="M1308.09 496.23L1068.14 357.704V505.485L1308.09 644.011V496.23Z" fill="#E6E6E6"/>
<path d="M1308.09 496.23L1505.74 382.1L1260.08 240.242L1062.47 354.41L1308.09 496.23Z" fill="#F0F0F0"/>
<path d="M1308.09 496.23V533.176L1505.74 419.082V382.1L1308.09 496.23Z" fill="#EBEBEB"/>
<path d="M1308.09 533.175L1500.04 422.377V430.484L1308.09 541.32V533.175Z" fill="#E6E6E6"/>
<path d="M1062.47 354.41L1308.09 496.23V533.175L1062.47 391.355V354.41Z" fill="#EBEBEB"/>
<g style="mix-blend-mode:multiply" opacity="0.5">
<path d="M1308.09 533.176L1068.14 394.65V402.794L1308.09 541.32V533.176Z" fill="#E0E0E0"/>
</g>
<path d="M1371.29 518.701L1436.85 480.83C1439.66 479.202 1441.96 480.534 1441.96 483.792V522.551C1441.86 524.329 1441.35 526.061 1440.46 527.604C1439.58 529.148 1438.34 530.461 1436.85 531.436L1371.29 569.343C1368.44 570.972 1366.18 569.677 1366.18 566.419V527.549C1366.26 525.773 1366.77 524.042 1367.65 522.503C1368.54 520.963 1369.79 519.659 1371.29 518.701Z" fill="#E0E0E0"/>
<path d="M1375.47 523.106L1432.63 490.085C1434.52 489.011 1436.07 489.9 1436.07 492.047V521.218C1436.02 522.41 1435.67 523.571 1435.08 524.602C1434.48 525.633 1433.64 526.504 1432.63 527.141L1375.47 560.162C1373.58 561.236 1372.06 560.162 1372.06 558.163V528.992C1372.12 527.81 1372.46 526.659 1373.05 525.635C1373.64 524.611 1374.47 523.744 1375.47 523.106Z" fill="white"/>
<path d="M1308.09 477.684V329.903L1500.04 219.067V366.848L1308.09 477.684Z" fill="#EBEBEB"/>
<path d="M1308.09 329.903L1068.14 191.377V339.158L1308.09 477.684V329.903Z" fill="#E6E6E6"/>
<path d="M1308.09 329.903L1505.74 215.736L1260.08 73.915L1062.47 188.045L1308.09 329.903Z" fill="#F5F5F5"/>
<path d="M1308.09 329.903V366.848L1505.74 252.755V215.736L1308.09 329.903Z" fill="#EBEBEB"/>
<path d="M1308.09 366.848L1500.04 256.013V264.157L1308.09 374.955V366.848Z" fill="#E6E6E6"/>
<path d="M1062.47 188.045L1308.09 329.903V366.848L1062.47 225.028V188.045Z" fill="#EBEBEB"/>
<g style="mix-blend-mode:multiply" opacity="0.5">
<path d="M1308.09 366.848L1068.14 228.322V236.429L1308.09 374.955V366.848Z" fill="#E0E0E0"/>
</g>
<path d="M1371.29 352.374L1436.85 314.503C1439.66 312.874 1441.96 314.207 1441.96 317.465V356.224C1441.85 358 1441.34 359.728 1440.45 361.27C1439.57 362.812 1438.33 364.127 1436.85 365.108L1371.29 402.942C1368.44 404.571 1366.18 403.238 1366.18 399.98V361.221C1366.26 359.445 1366.77 357.715 1367.65 356.175C1368.54 354.636 1369.79 353.332 1371.29 352.374Z" fill="#E0E0E0"/>
<path d="M1375.47 356.742L1432.63 323.758C1434.52 322.684 1436.07 323.536 1436.07 325.72V354.632C1436 355.819 1435.65 356.973 1435.05 358.002C1434.45 359.03 1433.62 359.904 1432.63 360.555L1375.47 393.539C1373.58 394.649 1372.06 393.761 1372.06 391.577V362.517C1372.14 361.354 1372.48 360.225 1373.08 359.222C1373.67 358.218 1374.49 357.369 1375.47 356.742Z" fill="white"/>
<path d="M1489.67 372.808L1308.09 477.684L1078.5 345.044L1072.87 348.376L1308.09 483.718L1495.34 376.066L1489.67 372.808Z" fill="#E0E0E0"/>
</g>
</svg>
