<svg width="1659" height="1323" viewBox="0 0 1659 1323" fill="none" xmlns="http://www.w3.org/2000/svg">
<g style="mix-blend-mode:luminosity">
<path d="M243.424 1195.79C567.194 1364.93 1092.16 1364.93 1415.93 1195.79C1739.7 1026.65 1739.7 752.411 1415.93 583.234C1092.16 414.056 567.342 414.093 243.424 583.234C-80.4946 752.374 -80.1984 1026.65 243.424 1195.79Z" fill="#F5F5F5"/>
<path d="M153.171 918.406L47.9251 857.657V631.914L153.171 692.7V918.406Z" fill="#E0E0E0"/>
<path d="M153.171 692.7L303.543 605.889V831.596L153.171 918.406V692.7Z" fill="#EBEBEB"/>
<path d="M303.543 605.889L153.171 692.7L47.9251 631.914L198.297 545.104L303.543 605.889Z" fill="#F5F5F5"/>
<path d="M168.238 701.362L288.513 631.914L291.289 633.506V717.132L170.977 786.58L168.201 784.988L168.238 701.362Z" fill="#E0E0E0"/>
<path d="M170.977 702.991L291.289 633.506V717.132L170.977 786.58V702.991Z" fill="#F5F5F5"/>
<path d="M218.14 689.923L238.611 678.114C241.239 676.559 243.387 677.263 243.387 679.669C243.196 681.143 242.665 682.552 241.836 683.785C241.008 685.019 239.904 686.043 238.611 686.776L218.14 698.586C215.474 700.14 213.327 699.437 213.327 697.031C213.519 695.553 214.054 694.14 214.89 692.906C215.725 691.672 216.838 690.65 218.14 689.923Z" fill="#E0E0E0"/>
<path d="M165.461 807.163L285.737 737.715V821.341L288.513 822.933L168.201 892.381L165.461 890.789V807.163Z" fill="#E0E0E0"/>
<path d="M168.201 808.755L288.513 739.307V822.933L168.201 892.381V808.755Z" fill="#F5F5F5"/>
<path d="M215.363 795.724L236.02 783.952C238.685 782.397 240.832 783.1 240.832 785.507C240.64 786.985 240.105 788.397 239.27 789.632C238.434 790.866 237.321 791.887 236.02 792.614L215.548 804.423C212.883 805.978 210.736 805.275 210.736 802.869C210.902 801.401 211.406 799.992 212.209 798.752C213.012 797.513 214.092 796.476 215.363 795.724Z" fill="#E0E0E0"/>
<path d="M153.171 679.669L47.9251 618.883V393.177L153.171 453.926V679.669Z" fill="#E0E0E0"/>
<path d="M153.171 453.926L303.543 367.115V592.859L153.171 679.669V453.926Z" fill="#EBEBEB"/>
<path d="M303.543 367.115L153.171 453.926L47.9251 393.177L198.297 306.367L303.543 367.115Z" fill="#F5F5F5"/>
<path d="M168.201 462.625L288.513 393.177L291.289 394.769V478.395L170.977 547.843L168.201 546.214V462.625Z" fill="#E0E0E0"/>
<path d="M218.14 451.149L238.574 439.34C241.24 437.822 243.387 438.525 243.387 440.932C243.189 442.408 242.652 443.818 241.817 445.052C240.982 446.285 239.872 447.308 238.574 448.039L218.14 459.849C215.474 461.366 213.327 460.7 213.327 458.294C213.522 456.812 214.058 455.395 214.893 454.155C215.728 452.916 216.839 451.887 218.14 451.149Z" fill="#E0E0E0"/>
<path d="M165.461 568.426L285.737 498.978V582.567L288.513 584.159L168.201 653.607L165.461 652.015V568.426Z" fill="#E0E0E0"/>
<path d="M168.201 570.018L288.513 500.57V584.159L168.201 653.607V570.018Z" fill="#F5F5F5"/>
<path d="M215.363 556.95L236.02 545.141C238.648 543.623 240.832 544.327 240.832 546.733C240.624 548.206 240.082 549.612 239.248 550.843C238.414 552.075 237.31 553.1 236.02 553.84L215.363 565.539C212.698 567.056 210.551 566.353 210.551 563.984C210.762 562.521 211.305 561.127 212.139 559.908C212.974 558.688 214.076 557.676 215.363 556.95Z" fill="#E0E0E0"/>
<path d="M168.201 462.625L288.513 393.177V476.766L168.201 546.214V462.625Z" fill="#E0E0E0"/>
<path d="M348.669 434.49L282.812 396.472V470.14L348.669 508.122V434.49Z" fill="#E0E0E0"/>
<path d="M213.327 558.135V453.926L239.129 438.97L243.387 445.263L318.573 401.839V497.349L213.327 558.135Z" fill="#EBEBEB"/>
<path d="M213.327 558.135L220.842 466.956L326.088 406.208L318.573 497.349L213.327 558.135Z" fill="#F5F5F5"/>
<path d="M228.357 503.938L170.977 470.806V544.475L228.357 577.57V503.938Z" fill="#EBEBEB"/>
<path d="M228.357 497.349L348.669 427.901V511.49L228.357 580.938V497.349Z" fill="#F5F5F5"/>
<path d="M275.519 484.281L295.954 472.472C298.619 470.954 300.766 471.658 300.766 474.064C300.566 475.539 300.028 476.949 299.193 478.182C298.358 479.414 297.249 480.438 295.954 481.172L275.519 492.981C272.854 494.499 270.707 493.795 270.707 491.426C270.902 489.944 271.438 488.527 272.273 487.288C273.108 486.048 274.219 485.019 275.519 484.281Z" fill="#E0E0E0"/>
<path d="M228.357 497.349L224.359 495.054V578.643L228.357 580.939V497.349Z" fill="#E0E0E0"/>
<path d="M224.359 495.054L344.634 425.569L348.669 427.901L228.357 497.349L224.359 495.054Z" fill="#EBEBEB"/>
<path d="M1396.57 781.657L1291.29 720.871V495.165L1396.57 555.913V781.657Z" fill="#E0E0E0"/>
<path d="M1396.57 555.913L1546.94 469.103V694.847L1396.57 781.657V555.913Z" fill="#EBEBEB"/>
<path d="M1546.94 469.103L1396.57 555.913L1291.29 495.165L1441.7 408.318L1546.94 469.103Z" fill="#F5F5F5"/>
<path d="M1411.6 564.613L1531.91 495.165L1534.69 496.757L1534.65 580.346L1414.38 649.794L1411.6 648.202V564.613Z" fill="#E0E0E0"/>
<path d="M1414.38 566.205L1534.69 496.757L1534.65 580.346L1414.38 649.794V566.205Z" fill="#F5F5F5"/>
<path d="M1461.54 553.137L1481.98 541.328C1484.64 539.81 1486.79 540.514 1486.79 542.883C1486.59 544.365 1486.06 545.781 1485.22 547.021C1484.39 548.261 1483.28 549.29 1481.98 550.027L1461.54 561.837C1458.88 563.354 1456.73 562.651 1456.73 560.282C1456.92 558.8 1457.46 557.383 1458.29 556.143C1459.13 554.904 1460.24 553.875 1461.54 553.137Z" fill="#E0E0E0"/>
<path d="M1408.83 670.414L1529.14 600.929V684.555L1531.91 686.147L1411.6 755.595L1408.83 754.003V670.414Z" fill="#E0E0E0"/>
<path d="M1411.6 672.006L1531.91 602.558V686.147L1411.6 755.595V672.006Z" fill="#F5F5F5"/>
<path d="M1458.76 658.938L1479.24 647.129C1481.86 645.611 1484.01 646.314 1484.01 648.684C1483.82 650.161 1483.28 651.573 1482.45 652.811C1481.63 654.05 1480.53 655.082 1479.24 655.828L1458.76 667.638C1456.1 669.155 1453.95 668.452 1453.95 666.046C1454.15 664.57 1454.69 663.161 1455.53 661.928C1456.36 660.695 1457.47 659.672 1458.76 658.938Z" fill="#E0E0E0"/>
<path d="M395.202 1017.58C395.202 1017.58 395.61 958.868 358.59 914.852C325.828 875.871 308.392 851.142 318.721 839.74C329.049 828.338 351.261 825.599 381.209 857.139C411.158 888.679 413.49 976.045 409.344 995.813L395.202 1017.58Z" fill="#BA68C8"/>
<path opacity="0.2" d="M395.202 1017.58C395.202 1017.58 395.61 958.868 358.59 914.852C325.828 875.871 308.392 851.142 318.721 839.74C329.049 828.338 351.261 825.599 381.209 857.139C411.158 888.679 413.49 976.045 409.344 995.813L395.202 1017.58Z" fill="black"/>
<path d="M401.422 954.462C401 954.464 400.591 954.322 400.261 954.06C399.931 953.797 399.7 953.43 399.608 953.019C386.651 892.418 353.408 858.916 334.713 844.33C334.326 844.03 334.074 843.589 334.011 843.103C333.949 842.618 334.081 842.127 334.38 841.739C334.687 841.349 335.134 841.096 335.626 841.034C336.118 840.971 336.614 841.105 337.008 841.406C356.073 856.213 390.02 890.493 403.236 952.241C403.29 952.477 403.296 952.722 403.255 952.96C403.213 953.199 403.124 953.426 402.993 953.63C402.862 953.833 402.691 954.009 402.491 954.145C402.291 954.282 402.066 954.377 401.829 954.425L401.422 954.462Z" fill="white"/>
<path d="M393.796 1039.38L378.729 1048.08C377.122 1043.69 374.411 1039.79 370.858 1036.75C367.305 1033.71 363.03 1031.63 358.442 1030.72C341.969 1027.02 324.866 1027.65 313.316 1013.36C301.766 999.071 315.833 983.523 313.316 973.009C310.799 962.496 309.17 959.46 288.513 948.947C267.856 938.433 259.712 920.997 275.26 909.188C290.808 897.379 315.981 906.041 331.233 916.592C344.782 925.847 357.665 928.29 372.806 930.178C387.947 932.066 412.601 940.469 408.825 975.638C406.353 997.406 401.308 1018.8 393.796 1039.38Z" fill="#BA68C8"/>
<path d="M335.972 993.184C335.577 993.181 335.194 993.054 334.875 992.822C334.556 992.59 334.318 992.263 334.195 991.889C334.055 991.418 334.104 990.91 334.332 990.475C334.56 990.039 334.949 989.71 335.416 989.557C336.749 989.149 368.734 979.006 382.32 989.89C382.657 990.208 382.862 990.641 382.895 991.104C382.928 991.567 382.787 992.025 382.498 992.388C382.21 992.751 381.795 992.992 381.337 993.064C380.879 993.136 380.411 993.034 380.024 992.777C368.03 983.152 336.86 992.999 336.527 993.11L335.972 993.184Z" fill="white"/>
<path d="M395.462 1036.57C395.011 1036.57 394.575 1036.41 394.24 1036.11C393.905 1035.81 393.694 1035.39 393.648 1034.94C385.392 956.98 291.475 919.998 290.549 919.627C290.32 919.541 290.11 919.41 289.931 919.242C289.753 919.074 289.609 918.873 289.509 918.649C289.409 918.425 289.355 918.183 289.349 917.938C289.343 917.693 289.386 917.449 289.476 917.221C289.658 916.773 290.005 916.411 290.446 916.211C290.887 916.012 291.388 915.989 291.845 916.148C292.844 916.555 388.835 954.314 397.313 1034.61C397.365 1035.09 397.223 1035.58 396.917 1035.96C396.612 1036.34 396.169 1036.59 395.684 1036.65L395.462 1036.57Z" fill="white"/>
<path d="M1316.24 988.187C1316.65 986.891 1332.53 905.153 1316.24 847.181C1301.43 794.021 1282.11 774.401 1254.57 770.07C1227.02 765.738 1215.07 785.581 1229.69 812.457C1244.31 839.333 1279.52 874.982 1288.14 935.027C1291.84 959.756 1294.66 981.227 1294.66 981.227L1316.24 988.187Z" fill="#BA68C8"/>
<path opacity="0.2" d="M1316.24 988.187C1316.65 986.891 1332.53 905.153 1316.24 847.181C1301.43 794.021 1282.11 774.401 1254.57 770.07C1227.02 765.738 1215.07 785.581 1229.69 812.457C1244.31 839.333 1279.52 874.982 1288.14 935.027C1291.84 959.756 1294.66 981.227 1294.66 981.227L1316.24 988.187Z" fill="black"/>
<path d="M1306.95 941.247C1306.71 941.232 1306.47 941.17 1306.25 941.064C1306.03 940.958 1305.83 940.809 1305.67 940.627C1305.51 940.445 1305.39 940.232 1305.31 940.002C1305.23 939.771 1305.19 939.528 1305.21 939.285C1308.91 873.094 1287.29 814.012 1248.53 785.025C1248.14 784.731 1247.88 784.292 1247.81 783.806C1247.74 783.321 1247.87 782.827 1248.16 782.434C1248.46 782.049 1248.9 781.796 1249.38 781.727C1249.87 781.658 1250.36 781.779 1250.75 782.064C1290.48 811.679 1312.76 872.095 1308.87 939.507C1308.84 939.991 1308.63 940.445 1308.27 940.77C1307.91 941.096 1307.43 941.267 1306.95 941.247Z" fill="white"/>
<path d="M1358.85 1030.76C1356.74 1015.54 1365.48 992.74 1386.24 987.336C1407.01 981.931 1416.27 970.011 1408.79 956.98C1401.31 943.949 1403.05 931.992 1421.89 926.587C1440.74 921.182 1457.25 911.779 1446.4 891.863C1438.52 877.462 1436.78 868.134 1456.1 839.777C1472.13 816.233 1459.02 802.425 1438.96 805.016C1418.9 807.607 1406.49 831.522 1393.94 835.52C1381.39 839.518 1378.51 818.195 1361.96 827.746C1345.41 837.297 1346.41 861.766 1345.89 878.832C1345.37 895.898 1344.26 899.748 1329.31 897.675C1314.35 895.602 1299.69 898.045 1300.03 934.213C1300.29 965.235 1316.83 1003.66 1316.83 1003.66L1358.85 1030.76Z" fill="#BA68C8"/>
<path d="M1332.6 1007.62H1332.42C1331.92 1007.57 1331.47 1007.32 1331.16 1006.93C1330.85 1006.54 1330.7 1006.04 1330.75 1005.55C1341.19 912.297 1421.23 833.632 1442.11 817.676C1442.5 817.377 1442.99 817.246 1443.48 817.312C1443.97 817.378 1444.42 817.635 1444.72 818.028C1445.02 818.421 1445.15 818.916 1445.08 819.406C1445.01 819.895 1444.76 820.338 1444.36 820.638C1423.74 836.371 1344.75 914 1334.45 1005.96C1334.4 1006.41 1334.18 1006.83 1333.84 1007.14C1333.5 1007.44 1333.06 1007.62 1332.6 1007.62Z" fill="white"/>
<path d="M1369.1 907.929C1368.73 907.927 1368.36 907.813 1368.05 907.602C1367.74 907.391 1367.5 907.093 1367.36 906.745C1367.21 906.278 1367.23 905.768 1367.44 905.32C1367.65 904.872 1368.02 904.521 1368.47 904.338C1398.31 893.233 1432.15 898.489 1433.59 898.712C1434.07 898.793 1434.5 899.06 1434.78 899.455C1435.07 899.85 1435.18 900.341 1435.11 900.822C1435.02 901.299 1434.75 901.725 1434.36 902.014C1433.97 902.302 1433.48 902.432 1433 902.376C1432.67 902.376 1398.68 897.046 1369.77 907.818C1369.56 907.891 1369.33 907.928 1369.1 907.929Z" fill="white"/>
<path d="M1342.52 963.976C1342.26 963.973 1342.01 963.916 1341.77 963.807C1341.54 963.699 1341.33 963.542 1341.15 963.347C1328.75 948.896 1320.34 931.45 1316.76 912.742C1316.72 912.501 1316.73 912.255 1316.79 912.019C1316.85 911.783 1316.95 911.56 1317.1 911.364C1317.24 911.168 1317.42 911.002 1317.63 910.877C1317.84 910.751 1318.07 910.668 1318.31 910.632C1318.55 910.595 1318.8 910.606 1319.04 910.664C1319.27 910.722 1319.5 910.827 1319.69 910.971C1319.89 911.116 1320.05 911.297 1320.18 911.506C1320.3 911.714 1320.39 911.946 1320.42 912.186C1323.96 930.158 1332.06 946.92 1343.93 960.867C1344.16 961.139 1344.31 961.472 1344.36 961.826C1344.41 962.18 1344.36 962.541 1344.21 962.867C1344.06 963.193 1343.83 963.47 1343.53 963.666C1343.23 963.863 1342.88 963.97 1342.52 963.976Z" fill="white"/>
<path d="M393.796 466.438V1039.42L980.254 700.844L980.217 179.946L544.168 431.714L529.101 388.29L393.796 466.438Z" fill="#BA68C8"/>
<path opacity="0.7" d="M393.796 466.438V1039.42L980.254 700.844L980.217 179.946L544.168 431.714L529.101 388.29L393.796 466.438Z" fill="black"/>
<path d="M393.796 1039.42L423.855 518.524L1010.31 179.946L980.254 700.844L393.796 1039.42Z" fill="#E0E0E0"/>
<path d="M393.796 1039.42L438.885 527.224L1025.34 188.609L980.254 700.844L393.796 1039.42Z" fill="#BA68C8"/>
<path opacity="0.7" d="M393.796 1039.42L438.885 527.224L1025.34 188.609L980.254 700.844L393.796 1039.42Z" fill="black"/>
<path d="M484.012 518.524V1091.54L1070.47 752.93V232.032L634.384 483.8L619.354 440.377L484.012 518.524Z" fill="#BA68C8"/>
<path opacity="0.5" d="M484.012 518.524V1091.54L1070.47 752.93V232.032L634.384 483.8L619.354 440.377L484.012 518.524Z" fill="black"/>
<path d="M484.012 1091.54L514.071 570.61L1100.53 232.032L1070.47 752.93L484.012 1091.54Z" fill="#E0E0E0"/>
<path d="M484.012 1091.54L529.101 579.31L1115.56 240.695L1070.47 752.93L484.012 1091.54Z" fill="#BA68C8"/>
<path opacity="0.5" d="M484.012 1091.54L529.101 579.31L1115.56 240.695L1070.47 752.93L484.012 1091.54Z" fill="black"/>
<path d="M980.106 1273.86C874.823 1213.08 777.167 1147 732.596 1069.48L868.086 991.26L980.106 1273.86Z" fill="#E0E0E0"/>
<path d="M589.257 579.31V1152.29L1175.72 813.715V292.818L739.629 544.586L724.599 501.162L589.257 579.31Z" fill="#BA68C8"/>
<path opacity="0.2" d="M589.257 579.31V1152.29L1175.72 813.715V292.818L739.629 544.586L724.599 501.162L589.257 579.31Z" fill="black"/>
<path d="M758.213 748.71C756.732 748.71 756.51 747.007 756.51 746.007V257.353C756.629 255.458 757.185 253.616 758.136 251.971C759.087 250.327 760.405 248.925 761.989 247.877L1185.27 3.54972C1185.85 3.18817 1186.51 2.98399 1187.19 2.9574C1188.67 2.9574 1188.89 4.66029 1188.89 5.65981V494.314C1188.78 496.215 1188.22 498.063 1187.27 499.714C1186.32 501.365 1185 502.773 1183.42 503.827L760.138 748.154C759.553 748.498 758.891 748.689 758.213 748.71Z" fill="white"/>
<path d="M1186.97 4.66024C1187 4.93089 1187 5.20402 1186.97 5.47466V494.128C1186.85 495.704 1186.38 497.233 1185.59 498.604C1184.8 499.974 1183.72 501.152 1182.42 502.051L759.138 746.377L758.398 746.711C758.349 746.441 758.349 746.165 758.398 745.896V257.242C758.525 255.673 759 254.151 759.787 252.787C760.575 251.424 761.655 250.252 762.951 249.357L1186.23 5.03042C1186.46 4.86712 1186.73 4.75372 1187.01 4.69726M1187.23 0.995342C1186.22 1.02535 1185.24 1.31892 1184.38 1.8468L761.1 246.174C759.24 247.396 757.691 249.037 756.579 250.966C755.467 252.894 754.822 255.057 754.696 257.279V745.933C754.696 748.821 756.14 750.486 758.398 750.486C759.407 750.46 760.39 750.166 761.248 749.635L1184.53 505.308C1186.4 504.095 1187.95 502.455 1189.06 500.525C1190.18 498.595 1190.82 496.428 1190.93 494.202V5.54872C1190.93 2.66122 1189.49 0.958323 1187.23 0.995342Z" fill="#BA68C8"/>
<path opacity="0.7" d="M1186.97 4.66024C1187 4.93089 1187 5.20402 1186.97 5.47466V494.128C1186.85 495.704 1186.38 497.233 1185.59 498.604C1184.8 499.974 1183.72 501.152 1182.42 502.051L759.138 746.377L758.398 746.711C758.349 746.441 758.349 746.165 758.398 745.896V257.242C758.525 255.673 759 254.151 759.787 252.787C760.575 251.424 761.655 250.252 762.951 249.357L1186.23 5.03042C1186.46 4.86712 1186.73 4.75372 1187.01 4.69726M1187.23 0.995342C1186.22 1.02535 1185.24 1.31892 1184.38 1.8468L761.1 246.174C759.24 247.396 757.691 249.037 756.579 250.966C755.467 252.894 754.822 255.057 754.696 257.279V745.933C754.696 748.821 756.14 750.486 758.398 750.486C759.407 750.46 760.39 750.166 761.248 749.635L1184.53 505.308C1186.4 504.095 1187.95 502.455 1189.06 500.525C1190.18 498.595 1190.82 496.428 1190.93 494.202V5.54872C1190.93 2.66122 1189.49 0.958323 1187.23 0.995342Z" fill="white"/>
<path d="M799.785 275.9L950.157 189.09V362.71L799.785 449.52V275.9Z" fill="#BA68C8"/>
<path opacity="0.8" d="M799.785 275.9L950.157 189.09V362.71L799.785 449.52V275.9Z" fill="white"/>
<path d="M927.613 232.365V284.563L922.874 287.191V271.236C922.874 262.425 915.73 259.427 906.845 264.535L843.135 301.369C834.287 306.478 827.106 317.769 827.106 326.579V342.535L822.404 345.348V293.262L927.613 232.365Z" fill="white"/>
<path d="M898.664 365.264C890.964 369.707 884.708 365.042 884.708 354.788V271.236L865.346 281.749V365.968C865.346 376.185 859.09 388.179 851.39 392.511L837.397 400.581V406.134L912.583 362.71V357.194L898.664 365.264Z" fill="white"/>
<path d="M980.106 180.539C980.106 185.351 984.437 186.721 989.731 183.685L1136.03 99.0963C1138.63 97.625 1140.85 95.5725 1142.52 93.0998C1144.19 90.6271 1145.26 87.8014 1145.66 84.8439C1145.66 80.0684 1141.32 78.6617 1136.03 81.7343L989.842 166.138C987.204 167.607 984.947 169.675 983.256 172.177C981.565 174.678 980.486 177.543 980.106 180.539Z" fill="#455A64"/>
<path d="M980.106 232.365C980.106 237.178 984.437 238.585 989.731 235.512L1135.92 151.108C1138.52 149.637 1140.74 147.585 1142.41 145.112C1144.08 142.639 1145.15 139.813 1145.54 136.856C1145.54 132.08 1141.21 130.674 1135.92 133.746L989.731 218.15C987.14 219.618 984.923 221.664 983.253 224.13C981.584 226.596 980.507 229.415 980.106 232.365Z" fill="#455A64"/>
<path d="M980.106 284.563C980.106 289.375 984.437 290.782 989.731 287.709L1135.92 203.305C1138.51 201.838 1140.73 199.791 1142.4 197.325C1144.07 194.859 1145.14 192.041 1145.54 189.09C1145.54 184.277 1141.21 182.871 1135.92 185.943L989.731 270.347C987.14 271.815 984.923 273.861 983.253 276.327C981.584 278.793 980.507 281.612 980.106 284.563Z" fill="#455A64"/>
<path d="M980.106 336.649C980.106 341.461 984.437 342.868 989.731 339.795L1135.92 255.391C1138.51 253.924 1140.73 251.877 1142.4 249.411C1144.07 246.945 1145.14 244.127 1145.54 241.176C1145.54 236.364 1141.21 234.957 1135.92 238.029L989.731 322.433C987.14 323.901 984.923 325.948 983.253 328.413C981.584 330.879 980.507 333.698 980.106 336.649Z" fill="#455A64"/>
<path d="M799.785 492.944C799.785 497.756 804.08 499.163 809.41 496.09L1136.03 307.292C1138.63 305.829 1140.85 303.784 1142.52 301.317C1144.19 298.85 1145.26 296.03 1145.66 293.077C1145.66 288.265 1141.32 286.895 1136.03 289.93L809.41 478.728C806.814 480.189 804.592 482.234 802.922 484.701C801.251 487.168 800.178 489.99 799.785 492.944Z" fill="#455A64"/>
<path d="M799.785 545.03C799.785 549.842 804.08 551.249 809.41 548.176L1136.03 359.601C1138.63 358.129 1140.85 356.077 1142.52 353.604C1144.19 351.131 1145.26 348.306 1145.66 345.348C1145.66 340.573 1141.32 339.166 1136.03 342.239L809.41 530.814C806.814 532.275 804.592 534.32 802.922 536.787C801.251 539.254 800.178 542.076 799.785 545.03Z" fill="#455A64"/>
<path d="M799.785 597.153C799.785 601.928 804.08 603.335 809.41 600.263L1136.03 411.687C1138.63 410.215 1140.85 408.163 1142.52 405.69C1144.19 403.218 1145.26 400.392 1145.66 397.434C1145.66 392.659 1141.32 391.252 1136.03 394.325L809.41 582.901C806.809 584.365 804.585 586.416 802.914 588.89C801.243 591.364 800.172 594.193 799.785 597.153Z" fill="#455A64"/>
<path d="M589.257 1152.29L694.503 692.181L1280.96 353.566L1175.72 813.715L589.257 1152.29Z" fill="#BA68C8"/>
<path d="M732.744 728.201V1069.48L868.086 991.333V650.09L732.744 728.201Z" fill="#BA68C8"/>
<path opacity="0.2" d="M732.744 728.201V1069.48L868.086 991.333V650.09L732.744 728.201Z" fill="black"/>
<path d="M980.365 1271.64C968.852 1263.05 857.869 1178.24 801.451 1056.93C741.406 927.957 741.48 777.51 741.48 720.908V719.131L1143.81 486.873C1143.81 543.993 1143.81 694.661 1204.11 824.081C1259.23 942.542 1365.96 1026.28 1382.88 1039.09L980.365 1271.64Z" fill="white"/>
<path d="M1141.95 490.204C1141.95 549.731 1143.1 697.512 1202.44 825.006C1255.71 939.396 1357 1021.65 1379.54 1039.01L980.476 1269.42C964.891 1257.69 858.091 1174.28 803.154 1056.3C743.183 927.697 743.183 777.548 743.183 721.019V720.316L1141.81 490.167M1145.51 483.763L739.481 718.206C739.481 771.476 738.371 926.254 799.637 1057.86C859.942 1187.02 980.106 1273.86 980.106 1273.86L1386.24 1039.38C1386.24 1039.38 1265.93 952.537 1205.81 823.377C1144.51 691.774 1145.66 536.997 1145.66 483.726L1145.51 483.763Z" fill="#BA68C8"/>
<path opacity="0.7" d="M1141.95 490.204C1141.95 549.731 1143.1 697.512 1202.44 825.006C1255.71 939.396 1357 1021.65 1379.54 1039.01L980.476 1269.42C964.891 1257.69 858.091 1174.28 803.154 1056.3C743.183 927.697 743.183 777.548 743.183 721.019V720.316L1141.81 490.167M1145.51 483.763L739.481 718.206C739.481 771.476 738.371 926.254 799.637 1057.86C859.942 1187.02 980.106 1273.86 980.106 1273.86L1386.24 1039.38C1386.24 1039.38 1265.93 952.537 1205.81 823.377C1144.51 691.774 1145.66 536.997 1145.66 483.726L1145.51 483.763Z" fill="white"/>
<path d="M1099.72 562.392L971.333 636.43C968.763 637.845 966.572 639.859 964.948 642.302C963.324 644.745 962.314 647.544 962.004 650.461C962.189 655.162 966.668 656.495 971.962 653.422L1100.38 579.384C1102.92 577.982 1105.09 575.995 1106.7 573.587C1108.32 571.179 1109.34 568.419 1109.67 565.538C1109.45 560.652 1105.05 559.319 1099.72 562.392Z" fill="#455A64"/>
<path d="M1102.45 612.923L974.072 686.962C971.533 688.327 969.38 690.313 967.814 692.733C966.247 695.154 965.319 697.931 965.113 700.807C965.52 705.36 970.185 706.582 975.479 703.509L1103.9 629.471C1106.43 628.111 1108.56 626.129 1110.11 623.713C1111.66 621.297 1112.57 618.526 1112.75 615.663C1112.38 611.072 1107.79 609.962 1102.45 612.923Z" fill="#455A64"/>
<path d="M1107.6 662.048L979.181 736.086C973.887 739.159 970.037 745.267 970.666 749.672C971.295 754.077 976.145 755.225 981.476 752.152L1109.9 678.114C1115.19 675.041 1118.97 668.97 1118.3 664.565C1117.63 660.16 1112.89 658.975 1107.6 662.048Z" fill="#455A64"/>
<path d="M1115.3 709.691L986.881 783.73C981.587 786.802 977.922 792.8 978.81 797.094C979.699 801.388 984.733 802.351 989.916 799.278L1118.3 725.24C1123.63 722.167 1127.18 716.207 1126.29 711.913C1125.41 707.618 1120.78 706.619 1115.3 709.691Z" fill="#455A64"/>
<path d="M1125.74 755.743L997.32 829.782C992.026 832.854 988.584 838.703 989.916 842.812C991.249 846.922 996.321 847.847 1001.61 844.774L1130.03 770.736C1135.36 767.663 1138.7 761.851 1137.44 757.705C1136.18 753.559 1131.03 752.671 1125.74 755.743Z" fill="#455A64"/>
<path d="M1139.29 800.129L826.328 980.82C821.034 983.893 817.814 989.594 819.258 993.555C820.701 997.516 826.217 998.256 831.511 995.184L1144.47 814.493C1149.8 811.42 1152.87 805.756 1151.43 801.758C1149.99 797.76 1144.4 797.057 1139.29 800.129Z" fill="#455A64"/>
<path d="M1155.76 842.516L842.839 1023.21C837.508 1026.28 834.584 1031.83 836.36 1035.61C838.137 1039.38 843.764 1039.98 849.169 1036.9L1162.13 856.213C1167.46 853.141 1170.31 847.588 1168.53 843.812C1166.76 840.036 1161.09 839.481 1155.76 842.516Z" fill="#455A64"/>
<path d="M1176.31 882.904L863.347 1063.6C858.017 1066.67 855.388 1072.07 857.498 1075.66C859.609 1079.25 865.643 1079.62 870.973 1076.55L1183.71 895.861C1189.01 892.825 1191.56 887.458 1189.45 883.867C1187.34 880.276 1181.49 879.832 1176.31 882.904Z" fill="#455A64"/>
<path d="M1200.26 921.108L887.336 1101.76C882.005 1104.83 879.636 1110.13 882.042 1113.5C884.448 1116.87 890.779 1117.2 896.109 1114.09L1209.03 933.398C1214.36 930.326 1216.66 925.106 1214.25 921.7C1211.85 918.295 1205.59 918.035 1200.26 921.108Z" fill="#455A64"/>
<path d="M1227.58 957.424L914.619 1138.08C909.325 1141.15 907.215 1146.3 909.881 1149.52C912.546 1152.74 919.098 1152.89 924.429 1149.81L1237.39 969.048C1242.68 965.975 1244.79 960.904 1242.05 957.683C1239.31 954.462 1232.91 954.24 1227.58 957.424Z" fill="#455A64"/>
<path d="M1257.75 992L944.901 1172.65C939.57 1175.73 937.497 1180.76 940.606 1183.76C943.716 1186.76 950.306 1186.83 955.599 1183.76L1268.56 1003.07C1273.89 999.996 1275.74 995.035 1272.78 991.963C1269.82 988.89 1263.15 988.964 1257.75 992Z" fill="#455A64"/>
<path d="M1291.07 1025.06L978.107 1205.71C972.813 1208.78 971.073 1213.71 974.405 1216.63C977.737 1219.56 984.548 1219.45 989.879 1216.37L1302.58 1035.68C1307.87 1032.61 1309.54 1027.8 1306.28 1024.84C1303.02 1021.87 1296.25 1021.99 1291.07 1025.06Z" fill="#455A64"/>
<path d="M924.799 663.417L777.167 748.561C778.796 802.054 784.904 879.202 807.263 956.906L954.933 871.761C932.536 794.058 926.428 716.873 924.799 663.417Z" fill="#BA68C8"/>
<path opacity="0.8" d="M924.799 663.417L777.167 748.561C778.796 802.054 784.904 879.202 807.263 956.906L954.933 871.761C932.536 794.058 926.428 716.873 924.799 663.417Z" fill="white"/>
<path d="M837.36 736.789C837.559 733.336 837.022 729.881 835.784 726.651C834.546 723.422 832.635 720.492 830.178 718.058L777.167 748.635C777.611 762.777 778.351 778.584 779.647 795.613C786.543 796.406 793.518 795.117 799.674 791.911C820.516 782.36 837.36 757.594 837.36 736.789Z" fill="#BA68C8"/>
<path opacity="0.6" d="M837.36 736.789C837.559 733.336 837.022 729.881 835.784 726.651C834.546 723.422 832.635 720.492 830.178 718.058L777.167 748.635C777.611 762.777 778.351 778.584 779.647 795.613C786.543 796.406 793.518 795.117 799.674 791.911C820.516 782.36 837.36 757.594 837.36 736.789Z" fill="white"/>
<path d="M942.384 820.675C932.536 808.274 912.509 769.959 903.958 753.263C903.621 752.603 903.095 752.059 902.447 751.701C901.798 751.344 901.057 751.189 900.32 751.256C899.583 751.324 898.882 751.612 898.31 752.082C897.737 752.551 897.319 753.182 897.109 753.892C887.858 785.516 882.487 818.147 881.117 851.068C868.787 841.28 858.188 829.492 849.761 816.196C849.402 815.681 848.903 815.279 848.323 815.038C847.743 814.797 847.106 814.727 846.488 814.836C845.869 814.945 845.295 815.228 844.832 815.653C844.369 816.077 844.037 816.625 843.875 817.232C827.735 879.388 835.842 940.543 835.842 940.543L954.933 871.762C949.973 854.585 945.863 837.482 942.384 820.675Z" fill="#BA68C8"/>
<path opacity="0.6" d="M942.384 820.675C932.536 808.274 912.509 769.959 903.958 753.263C903.621 752.603 903.095 752.059 902.447 751.701C901.798 751.344 901.057 751.189 900.32 751.256C899.583 751.324 898.882 751.612 898.31 752.082C897.737 752.551 897.319 753.182 897.109 753.892C887.858 785.516 882.487 818.147 881.117 851.068C868.787 841.28 858.188 829.492 849.761 816.196C849.402 815.681 848.903 815.279 848.323 815.038C847.743 814.797 847.106 814.727 846.488 814.836C845.869 814.945 845.295 815.228 844.832 815.653C844.369 816.077 844.037 816.625 843.875 817.232C827.735 879.388 835.842 940.543 835.842 940.543L954.933 871.762C949.973 854.585 945.863 837.482 942.384 820.675Z" fill="white"/>
</g>
</svg>
