<svg width="180" height="218" viewBox="0 0 180 218" fill="none" xmlns="http://www.w3.org/2000/svg">
<path d="M0 0H180V217.5L89.3617 161.25L0 217.5V0Z" fill="#4F9D69"/>
<path d="M52.9166 67.0416L88.4041 45.9375C88.8167 45.6927 89.2801 45.5462 89.7585 45.5094C90.2368 45.4725 90.7172 45.5463 91.1624 45.725L91.5958 45.9375L127.083 67.0416C128.378 67.8112 129.468 68.8813 130.262 70.1614C131.055 71.4415 131.528 72.894 131.642 74.3958L131.667 75.1041V106.962C131.667 110.421 130.343 113.749 127.968 116.263C125.592 118.778 122.345 120.287 118.892 120.483L118.125 120.5H61.8749C58.416 120.5 55.0881 119.177 52.574 116.801C50.0598 114.426 48.5499 111.178 48.3541 107.725L48.3333 106.958V75.0958C48.3333 72.025 49.8333 69.1666 52.3249 67.4208L52.9166 67.0416ZM125.417 78.4583L91.4458 96.1875C91.0752 96.3806 90.6696 96.4974 90.2531 96.5311C89.8366 96.5647 89.4175 96.5145 89.0208 96.3833L88.5541 96.1875L54.5833 78.4583V106.958C54.5833 108.788 55.2715 110.551 56.5111 111.897C57.7507 113.244 59.4512 114.074 61.2749 114.225L61.8749 114.25H118.125C119.956 114.25 121.719 113.561 123.065 112.321C124.412 111.08 125.242 109.379 125.392 107.554L125.417 106.958V78.4583ZM89.9999 52.2625L56.2833 72.3041L89.9999 89.8916L123.708 72.3L89.9999 52.2625Z" fill="white"/>
</svg>
